<svg width="0" height="0" class="hidden">
    <symbol viewBox="0 0 12 26" xmlns="http://www.w3.org/2000/svg" id="info">
        <path d="M11.4017 22.9588L11.0384 24.3985C9.94854 24.8155 9.07796 25.1329 8.42969 25.3511C7.78073 25.57 7.02666 25.6789 6.16751 25.6789C4.84813 25.6789 3.8219 25.3656 3.08997 24.7432C2.35805 24.1184 1.99197 23.3265 1.99197 22.366C1.99197 21.9941 2.01853 21.6117 2.07376 21.222C2.12945 20.8318 2.218 20.3925 2.33917 19.9013L3.70119 15.2278C3.82236 14.7802 3.92536 14.3562 4.00785 13.9552C4.09151 13.5567 4.13182 13.1901 4.13182 12.86C4.13182 12.2632 4.00436 11.8457 3.75059 11.611C3.49683 11.3769 3.01261 11.2581 2.29373 11.2581C1.94164 11.2581 1.57975 11.3128 1.21088 11.4185C0.84037 11.5247 0.523692 11.6272 0.257812 11.7226L0.622027 10.2817C1.51427 9.92954 2.36714 9.62795 3.18295 9.37765C3.99876 9.12666 4.7696 9.00106 5.49873 9.00106C6.80902 9.00106 7.82011 9.30807 8.53013 9.92208C9.24015 10.5366 9.59504 11.3331 9.59504 12.3147C9.59504 12.5178 9.57174 12.8756 9.52164 13.3871C9.4727 13.8996 9.38159 14.3693 9.24877 14.7965L7.89258 19.4513C7.78142 19.8252 7.68146 20.2526 7.59454 20.7336C7.50483 21.2114 7.46195 21.5764 7.46195 21.8213C7.46195 22.4394 7.60409 22.8614 7.88908 23.0857C8.17617 23.3101 8.67064 23.4217 9.37297 23.4217C9.7027 23.4217 10.0779 23.365 10.4947 23.2536C10.9105 23.1422 11.2136 23.0444 11.4017 22.9588ZM11.7456 3.41639C11.7456 4.2274 11.4303 4.92004 10.7967 5.48955C10.1648 6.0611 9.40326 6.3471 8.51242 6.3471C7.61878 6.3471 6.85539 6.0611 6.21621 5.48955C5.57819 4.91981 5.25848 4.2274 5.25848 3.41639C5.25848 2.60697 5.57819 1.9132 6.21621 1.33646C6.85423 0.760623 7.61901 0.472816 8.51242 0.472816C9.40303 0.472816 10.1648 0.761301 10.7967 1.33646C11.4308 1.9132 11.7456 2.60719 11.7456 3.41639Z"/>
    </symbol>

    <symbol viewBox="0 0 40 41" xmlns="http://www.w3.org/2000/svg" id="cash">
        <path d="M11.7022 10.4733C11.7517 10.6314 11.7364 10.8028 11.6595 10.9497C11.5827 11.0965 11.4507 11.2069 11.2925 11.2564L10.0998 11.6298L12.4987 19.2947V8.91357L11.3287 9.27982L11.7022 10.4733Z"/>
        <path d="M24.7023 37.166H17.5C17.3342 37.166 17.1753 37.1002 17.0581 36.983C16.9408 36.8657 16.875 36.7068 16.875 36.541V35.291H15.625C15.4592 35.291 15.3003 35.2252 15.1831 35.108C15.0658 34.9907 15 34.8318 15 34.666V7.16602C15 7.00026 15.0658 6.84128 15.1831 6.72407C15.3003 6.60686 15.4592 6.54102 15.625 6.54102H16.875V5.29102C16.875 5.12526 16.9408 4.96628 17.0581 4.84907C17.1753 4.73186 17.3342 4.66602 17.5 4.66602H25C25.1658 4.66602 25.3247 4.73186 25.4419 4.84907C25.5592 4.96628 25.625 5.12526 25.625 5.29102V6.54102H26.875C27.0408 6.54102 27.1997 6.60686 27.3169 6.72407C27.4342 6.84128 27.5 7.00026 27.5 7.16602V27.9739L27.8195 28.416H28.75V3.41602H13.75V38.416H26.0542C25.55 38.0613 25.0953 37.641 24.7023 37.166Z"/>
        <path d="M12.5008 27.6656V23.4795L8.72229 11.4067C8.69777 11.3284 8.68891 11.246 8.69623 11.1642C8.70354 11.0825 8.72689 11.003 8.76493 10.9302C8.80297 10.8575 8.85497 10.793 8.91795 10.7403C8.98093 10.6877 9.05366 10.648 9.13198 10.6235L10.3247 10.2501L9.9512 9.05668C9.9017 8.89849 9.91706 8.72712 9.9939 8.58026C10.0707 8.43339 10.2028 8.32307 10.361 8.27356L12.5008 7.60355V6.29395L6.40894 8.20082L12.5008 27.6656Z"/>
        <path d="M24.3633 23.6329L26.25 26.2441V7.79102H25C24.8342 7.79102 24.6753 7.72517 24.5581 7.60796C24.4408 7.49075 24.375 7.33178 24.375 7.16602V5.91602H18.125V7.16602C18.125 7.33178 18.0592 7.49075 17.9419 7.60796C17.8247 7.72517 17.6658 7.79102 17.5 7.79102H16.25V34.041H17.5C17.6658 34.041 17.8247 34.1069 17.9419 34.2241C18.0592 34.3413 18.125 34.5003 18.125 34.666V35.916H23.878C23.4091 35.002 23.1525 33.994 23.1272 32.9671L19.1904 27.1405C18.8738 26.6708 18.6905 26.124 18.6599 25.5584C18.6293 24.9928 18.7526 24.4294 19.0166 23.9283C18.4126 23.481 17.9569 22.8626 17.7085 22.1533C17.4602 21.4439 17.4306 20.6763 17.6238 19.95C17.8169 19.2236 18.2237 18.572 18.7915 18.0797C19.3594 17.5873 20.062 17.2769 20.8084 17.1886C21.5548 17.1004 22.3105 17.2383 22.9775 17.5847C23.6445 17.931 24.1921 18.4697 24.5493 19.131C24.9065 19.7923 25.0568 20.5456 24.9808 21.2933C24.9047 22.041 24.6058 22.7486 24.1228 23.3245C24.2093 23.4222 24.2896 23.5252 24.3633 23.6329Z"/>
        <path d="M29.9987 16.541V29.041C29.9987 29.2068 29.9329 29.3657 29.8157 29.483C29.6985 29.6002 29.5395 29.666 29.3737 29.666H27.4987C27.3998 29.666 27.3024 29.6425 27.2143 29.5975C27.1262 29.5525 27.0501 29.4873 26.9922 29.4071L23.3433 24.3574C23.3395 24.3521 23.3355 24.3467 23.332 24.3413C23.196 24.1331 23.0199 23.9541 22.8141 23.8146C22.6082 23.6751 22.3766 23.5779 22.1328 23.5288C21.889 23.4796 21.6379 23.4794 21.3941 23.5283C21.1502 23.5771 20.9185 23.674 20.7125 23.8132C20.5064 23.9525 20.3301 24.1313 20.1938 24.3393C20.0576 24.5474 19.964 24.7804 19.9187 25.025C19.8734 25.2695 19.8771 25.5206 19.9297 25.7636C19.9824 26.0067 20.0828 26.2368 20.2253 26.4407L24.2795 32.4411C24.3723 32.5783 24.4067 32.7467 24.3754 32.9094C24.408 34.3798 25.0146 35.7791 26.0654 36.8081C27.1163 37.8371 28.528 38.4142 29.9987 38.416H33.7488V24.041C33.7484 23.7333 33.6727 23.4303 33.5282 23.1587L29.9987 16.541Z"/>
        <path d="M18.75 20.9161C18.75 21.3175 18.8467 21.7131 19.032 22.0692C19.2174 22.4254 19.4858 22.7316 19.8146 22.9619C19.884 22.906 19.9552 22.8522 20.0302 22.8017C20.4811 22.4975 21.0036 22.3163 21.546 22.2758C22.0884 22.2354 22.6319 22.3371 23.123 22.5711C23.391 22.2679 23.5814 21.9042 23.6779 21.5112C23.7744 21.1182 23.774 20.7076 23.6768 20.3148C23.5797 19.922 23.3886 19.5586 23.12 19.2559C22.8514 18.9532 22.5134 18.7202 22.1349 18.577C21.7564 18.4338 21.3488 18.3846 20.9471 18.4336C20.5455 18.4826 20.1617 18.6284 19.8288 18.8584C19.4958 19.0885 19.2237 19.3959 19.0358 19.7543C18.8479 20.1127 18.7499 20.5114 18.75 20.9161V20.9161Z"/>
    </symbol>
</svg>